{
	"asset":{
		"generator":"Khronos glTF Blender I/O v3.5.30",
		"version":"2.0"
	},
	"scene":0,
	"scenes":[
		{
			"name":"Scene",
			"nodes":[
				0
			]
		}
	],
	"nodes":[
		{
			"mesh":0,
			"name":"Marker.006",
			"rotation":[
				0.7071068286895752,
				0,
				0,
				0.7071068286895752
			],
			"scale":[
				13.445040702819824,
				13.445040702819824,
				13.445040702819824
			]
		}
	],
	"materials":[
		{
			"doubleSided":true,
			"name":"Accent-2",
			"pbrMetallicRoughness":{
				"baseColorFactor":[
					1,
					0.07618511468172073,
					0.0761854350566864,
					1
				],
				"metallicFactor":0,
				"roughnessFactor":0.4000000059604645
			}
		},
		{
			"doubleSided":true,
			"name":"Primary",
			"pbrMetallicRoughness":{
				"baseColorFactor":[
					1,
					0.9559725522994995,
					0.7454043626785278,
					1
				],
				"metallicFactor":0,
				"roughnessFactor":0.4000000059604645
			}
		}
	],
	"meshes":[
		{
			"name":"Curve.004",
			"primitives":[
				{
					"attributes":{
						"POSITION":0,
						"TEXCOORD_0":1,
						"NORMAL":2
					},
					"indices":3,
					"material":0
				},
				{
					"attributes":{
						"POSITION":4,
						"TEXCOORD_0":5,
						"NORMAL":6
					},
					"indices":7,
					"material":1
				}
			]
		}
	],
	"accessors":[
		{
			"bufferView":0,
			"componentType":5126,
			"count":256,
			"max":[
				0.008696720004081726,
				0.0020000000949949026,
				0.018968483433127403
			],
			"min":[
				-0.008696286007761955,
				-0.0020000000949949026,
				-0.009434010833501816
			],
			"type":"VEC3"
		},
		{
			"bufferView":1,
			"componentType":5126,
			"count":256,
			"type":"VEC2"
		},
		{
			"bufferView":2,
			"componentType":5126,
			"count":256,
			"type":"VEC3"
		},
		{
			"bufferView":3,
			"componentType":5123,
			"count":780,
			"type":"SCALAR"
		},
		{
			"bufferView":4,
			"componentType":5126,
			"count":2481,
			"max":[
				0.008888816460967064,
				0.0022005040664225817,
				0.019361911341547966
			],
			"min":[
				-0.008893153630197048,
				-0.0022005040664225817,
				-0.00963007565587759
			],
			"type":"VEC3"
		},
		{
			"bufferView":5,
			"componentType":5126,
			"count":2481,
			"type":"VEC2"
		},
		{
			"bufferView":6,
			"componentType":5126,
			"count":2481,
			"type":"VEC3"
		},
		{
			"bufferView":7,
			"componentType":5123,
			"count":13341,
			"type":"SCALAR"
		}
	],
	"bufferViews":[
		{
			"buffer":0,
			"byteLength":3072,
			"byteOffset":0,
			"target":34962
		},
		{
			"buffer":0,
			"byteLength":2048,
			"byteOffset":3072,
			"target":34962
		},
		{
			"buffer":0,
			"byteLength":3072,
			"byteOffset":5120,
			"target":34962
		},
		{
			"buffer":0,
			"byteLength":1560,
			"byteOffset":8192,
			"target":34963
		},
		{
			"buffer":0,
			"byteLength":29772,
			"byteOffset":9752,
			"target":34962
		},
		{
			"buffer":0,
			"byteLength":19848,
			"byteOffset":39524,
			"target":34962
		},
		{
			"buffer":0,
			"byteLength":29772,
			"byteOffset":59372,
			"target":34962
		},
		{
			"buffer":0,
			"byteLength":26682,
			"byteOffset":89144,
			"target":34963
		}
	],
	"buffers":[
		{
			"byteLength":115828,
			"uri":"data:application/octet-stream;base64,"
		}
	]
}
